<svg xmlns="http://www.w3.org/2000/svg" viewBox="0 0 128 128">
  <rect width="128" height="128" rx="24" fill="#101722"/>
  <rect x="8" y="8" width="112" height="112" rx="20" fill="none" stroke="#57b3ff" stroke-width="4"/>
  <path d="M64 18 95 34v28c0 24-14 39-31 48C47 101 33 86 33 62V34z" fill="#57b3ff" opacity=".16"/>
  <path d="M64 26 87 38v22c0 18-10 30-23 38-13-8-23-20-23-38V38z" fill="none" stroke="#57b3ff" stroke-width="4"/>
  <path d="M49 50h20c10 0 16 5 16 13 0 6-3 10-9 12 8 2 12 6 12 14 0 10-8 17-22 17H49z" fill="#eef6ff"/>
  <path d="M59 58v14h8c5 0 8-3 8-7s-3-7-8-7zm0 22v15h9c6 0 10-3 10-7 0-6-4-8-10-8z" fill="#101722"/>
</svg>
